<svg width="50" height="50" viewBox="0 0 50 50" fill="none" xmlns="http://www.w3.org/2000/svg">
<path d="M49.2569 31.0337C45.9209 44.4184 32.3645 52.5916 18.9552 49.2536C5.57049 45.9074 -2.58954 32.3509 0.746426 18.9663C4.08239 5.58158 17.6306 -2.59159 31.0072 0.746403C44.4246 4.04348 52.5847 17.6409 49.2569 31.0337Z" fill="#F7931A"/>
<path d="M36.8381 21.7161C37.2874 18.3828 34.7547 16.6426 31.2825 15.4661L32.3609 10.9563L29.6158 10.2945L28.5701 14.7063C27.843 14.5347 27.1077 14.3632 26.3805 14.2161L27.4263 9.80434L24.6485 9.14258L23.5701 13.6524C22.9818 13.5135 22.3854 13.4073 21.7972 13.2684L18.0145 12.3615L17.3201 15.2782C17.3201 15.2782 19.3707 15.7276 19.2972 15.7684C20.4083 16.0462 20.6207 16.7733 20.5799 17.3289L19.3626 22.4678C19.4361 22.5004 19.5341 22.5004 19.6403 22.574C19.5341 22.5413 19.4688 22.5413 19.3626 22.5086L17.6959 29.6982C17.557 30.0413 17.2057 30.5315 16.4459 30.3599C16.4786 30.3926 14.4279 29.8697 14.4279 29.8697L13.1289 33.0315L16.7073 33.8648C17.3691 34.0364 18.0309 34.1753 18.6518 34.355L17.5734 38.9057L20.3184 39.5675L21.3969 35.0577C22.1649 35.2619 22.892 35.4416 23.5864 35.6132L22.508 40.0903L25.2531 40.7521L26.3315 36.2015C31.0211 37.0348 34.526 36.6508 35.9475 32.3779C37.0913 28.971 35.8413 27.0266 33.3413 25.7439C35.1714 25.3272 36.4949 24.1426 36.8381 21.7161ZM30.6616 30.5642C29.8609 33.9711 24.1011 32.1982 22.2547 31.7488L23.6763 25.7031C25.5554 26.1606 31.4949 26.9939 30.6616 30.5642ZM31.4214 21.7161C30.6943 24.8044 25.8985 23.3174 24.3381 22.9335L25.6616 17.4514C27.1894 17.8272 32.1894 18.489 31.4214 21.7161Z" fill="white"/>
</svg>
