<svg width="50" height="50" viewBox="0 0 50 50" fill="none" xmlns="http://www.w3.org/2000/svg">
<path d="M49.2569 31.0337C45.9209 44.4184 32.3645 52.5916 18.9552 49.2536C5.57049 45.9074 -2.58954 32.3509 0.746426 18.9663C4.08239 5.58158 17.6306 -2.59159 31.0072 0.746403C44.4246 4.04348 52.5847 17.6409 49.2569 31.0337Z" fill="#F0B90B"/>
<path d="M34.564 23.7786L34.5447 19.6172H34.5597L31.0252 17.5366L24.9685 21.1077L18.9484 17.5366L15.4161 19.6172V23.7786L21.4728 27.3325V34.4576L24.9901 36.5188L28.5073 34.4576V27.3325L34.564 23.7786Z" fill="white"/>
<path d="M24.9707 6.87695L15.4139 12.5115L18.9312 14.5922L24.9707 11.021L31.0274 14.5922L34.5447 12.5115L24.9707 6.87695Z" fill="white"/>
<path d="M12.8902 32.3596L12.8708 25.2518L9.35567 23.1733V34.4597L18.9297 40.0749V35.9135L12.8902 32.3596Z" fill="white"/>
<path d="M12.8708 22.2859V18.1439L16.4053 16.0633L12.8708 13.9826L9.35352 16.0633V20.2052L12.8708 22.2859Z" fill="white"/>
<path d="M24.9691 13.9826L21.4518 16.0633L24.9691 18.1439L28.5036 16.0633L24.9691 13.9826Z" fill="white"/>
<path d="M18.9312 28.8057L15.4139 26.725V30.8864L18.9312 32.9476V28.8057Z" fill="white"/>
<path d="M24.9707 39.4847L21.4534 37.404V41.546L24.9707 43.6266L28.5052 41.546V37.404L24.9707 39.4847Z" fill="white"/>
<path d="M37.0668 13.9826L33.5496 16.0633L37.0668 18.1439V22.2859L40.6014 20.2052V16.0633L37.0668 13.9826Z" fill="white"/>
<path d="M40.6035 23.1711L37.0862 25.2518L37.0668 32.3596L31.0295 35.9114V40.0727L40.6035 34.4575V23.1711Z" fill="white"/>
<path d="M34.5454 30.8862L31.0281 32.9475V28.8056L34.5454 26.7249V30.8862Z" fill="white"/>
</svg>
