<svg width="50" height="50" viewBox="0 0 50 50" fill="none" xmlns="http://www.w3.org/2000/svg">
<path fill-rule="evenodd" clip-rule="evenodd" d="M25 50C11.25 50 0 38.7502 0 24.8755C0.125 11.1258 11.25 -0.123966 25.125 0.00103168C38.875 0.126029 50 11.2508 50 25.2505C49.875 38.8752 38.75 50 25 50" fill="url(#paint0_linear_3742_11578)"/>
<path fill-rule="evenodd" clip-rule="evenodd" d="M15.5951 14.9738C15.1409 12.604 16.9577 10.4165 19.3197 10.4165C21.4091 10.4165 23.1351 12.1483 23.1351 14.2446V18.9842C23.6802 18.9842 24.2252 18.8931 24.7703 18.8931C25.3154 18.8931 25.7696 18.8931 26.3146 18.9842V14.2446C26.3146 12.1483 28.0407 10.4165 30.1301 10.4165C32.492 10.4165 34.3089 12.604 33.9455 14.9738L32.9462 20.5337C36.4891 22.0832 39.2145 24.8175 39.2145 28.1899V30.2863C39.2145 33.1118 37.3976 35.4816 34.7631 37.0311C32.1286 38.6717 28.6766 39.5832 24.7703 39.5832C20.864 39.5832 17.412 38.6717 14.7775 37.0311C12.2339 35.4816 10.417 33.1118 10.417 30.2863V28.1899C10.417 24.8175 13.0515 22.0832 16.5944 20.5337L15.5951 14.9738ZM31.5836 21.2629L32.7646 14.7004C33.0371 13.0597 31.8561 11.5103 30.1301 11.5103C28.6766 11.5103 27.4956 12.6951 27.4956 14.1535V20.1691C27.1322 20.078 26.678 20.078 26.3146 20.078C25.7696 20.078 25.3154 19.9868 24.7703 19.9868C24.2252 19.9868 23.6802 19.9868 23.1351 20.078C22.7717 20.078 22.3175 20.1691 21.9541 20.1691V14.2446C21.9541 12.7863 20.7732 11.6014 19.3197 11.6014C17.6845 11.6014 16.4127 13.1509 16.7761 14.7915L17.957 21.354C14.1416 22.8123 11.598 25.3644 11.598 28.2811V30.3774C11.598 34.8436 17.5028 38.4894 24.7703 38.4894C32.0378 38.4894 37.9426 34.8436 37.9426 30.3774V28.2811C38.0335 25.2733 35.4899 22.7212 31.5836 21.2629Z" fill="#633001"/>
<path d="M38.0153 30.2611C38.0153 34.7838 32.0777 38.4757 24.7699 38.4757C17.462 38.4757 11.5244 34.7838 11.5244 30.2611V28.1382H38.1067V30.2611H38.0153Z" fill="#FEDC90"/>
<path fill-rule="evenodd" clip-rule="evenodd" d="M16.6575 14.7069C16.2909 13.0699 17.5742 11.5239 19.2241 11.5239C20.6907 11.5239 21.8823 12.7062 21.8823 14.1613V20.1634C22.799 20.0725 23.7156 19.9816 24.7239 19.9816C25.6405 19.9816 26.5572 20.0725 27.4738 20.1634V14.1613C27.4738 12.7062 28.6654 11.5239 30.132 11.5239C31.7819 11.5239 33.0652 13.0699 32.7902 14.7069L31.5986 21.2547C35.4485 22.7098 38.1067 25.2562 38.1067 28.1664C38.1067 32.6225 32.1486 36.2602 24.8156 36.2602C17.4825 36.2602 11.5244 32.6225 11.5244 28.1664C11.5244 25.2562 14.091 22.7098 17.9408 21.2547L16.6575 14.7069Z" fill="#D1884F"/>
<path d="M21.1235 27.7689C21.1235 28.9688 20.4774 29.9841 19.6467 29.9841C18.816 29.9841 18.1699 28.9688 18.1699 27.7689C18.1699 26.569 18.816 25.5537 19.6467 25.5537C20.4774 25.5537 21.1235 26.569 21.1235 27.7689Z" fill="#633001"/>
<path d="M31.4614 27.7689C31.4614 28.9688 30.8153 29.9841 29.9846 29.9841C29.1539 29.9841 28.5078 28.9688 28.5078 27.7689C28.5078 26.569 29.1539 25.5537 29.9846 25.5537C30.8153 25.5537 31.4614 26.569 31.4614 27.7689Z" fill="#633001"/>
<defs>
<linearGradient id="paint0_linear_3742_11578" x1="25" y1="0" x2="25" y2="50" gradientUnits="userSpaceOnUse">
<stop stop-color="#53DEE8"/>
<stop offset="1" stop-color="#22C8D5"/>
</linearGradient>
</defs>
</svg>
