<svg width="50" height="50" viewBox="0 0 50 50" fill="none" xmlns="http://www.w3.org/2000/svg">
<path d="M49.2569 31.0337C45.9209 44.4184 32.3645 52.5916 18.9552 49.2536C5.57049 45.9074 -2.58954 32.3509 0.746426 18.9663C4.08239 5.58158 17.6306 -2.59159 31.0072 0.746403C44.4246 4.04348 52.5847 17.6409 49.2569 31.0337Z" fill="#0033AD"/>
<path d="M25.191 12.294C25.3619 12.3037 25.5319 12.2625 25.6795 12.1756C25.8271 12.0887 25.9455 11.96 26.0199 11.8057C26.0943 11.6515 26.1213 11.4786 26.0974 11.3091C26.0736 11.1395 26 10.9808 25.8859 10.8531C25.7718 10.7253 25.6225 10.6343 25.4567 10.5915C25.2909 10.5486 25.1161 10.556 24.9544 10.6125C24.7928 10.669 24.6515 10.7722 24.5485 10.909C24.4455 11.0459 24.3854 11.2101 24.3758 11.3811C24.363 11.6102 24.4416 11.8351 24.5945 12.0063C24.7473 12.1774 24.9619 12.2809 25.191 12.294Z" fill="white"/>
<path d="M32.7211 12.7225C32.5864 12.7237 32.4544 12.6849 32.3418 12.6111C32.191 12.5122 32.0856 12.3576 32.0487 12.181C32.0119 12.0045 32.0466 11.8205 32.1452 11.6695C32.2189 11.5568 32.3244 11.4685 32.4482 11.4157C32.5721 11.363 32.7089 11.3481 32.8412 11.3731C32.9735 11.3981 33.0954 11.4617 33.1915 11.556C33.2877 11.6503 33.3537 11.771 33.3812 11.9028C33.4087 12.0346 33.3965 12.1716 33.3461 12.2965C33.2958 12.4214 33.2095 12.5285 33.0982 12.6043C32.987 12.6801 32.8557 12.7213 32.7211 12.7225Z" fill="white"/>
<path d="M18.076 12.6826C18.1955 12.6212 18.2941 12.5259 18.3595 12.4086C18.4249 12.2914 18.4542 12.1573 18.4436 12.0235C18.433 11.8896 18.383 11.7618 18.3 11.6563C18.217 11.5508 18.1046 11.4721 17.9769 11.4304C17.8493 11.3886 17.7122 11.3855 17.5828 11.4214C17.4534 11.4574 17.3376 11.5308 17.2498 11.6325C17.1621 11.7342 17.1064 11.8595 17.0898 11.9928C17.0731 12.126 17.0963 12.2612 17.1563 12.3814C17.1966 12.4618 17.2525 12.5334 17.3207 12.5921C17.3888 12.6508 17.4679 12.6955 17.5534 12.7235C17.6389 12.7515 17.7291 12.7623 17.8188 12.7553C17.9085 12.7483 17.9959 12.7236 18.076 12.6826Z" fill="white"/>
<path d="M18.7397 26.4161C18.368 25.9988 18.1773 25.451 18.2093 24.8931L18.2035 24.8942C18.2271 24.484 18.3703 24.0897 18.6154 23.7599C18.8605 23.4302 19.1967 23.1794 19.5827 23.0385C19.9687 22.8977 20.3874 22.8729 20.7873 22.9673C21.1872 23.0617 21.5507 23.2711 21.8329 23.5697C22.1152 23.8683 22.3038 24.243 22.3755 24.6476C22.4473 25.0521 22.399 25.4688 22.2366 25.8463C22.0743 26.2237 21.805 26.5453 21.4619 26.7715C21.1189 26.9976 20.7171 27.1184 20.3063 27.1188H20.1913C19.6334 27.0862 19.1113 26.8335 18.7397 26.4161Z" fill="white"/>
<path d="M9.98072 24.4528C10.0964 24.3846 10.2298 24.3522 10.3639 24.3597C10.4531 24.3645 10.5405 24.3869 10.6211 24.4257C10.7016 24.4644 10.7737 24.5186 10.8332 24.5853C10.8927 24.652 10.9384 24.7297 10.9678 24.8141C10.9971 24.8985 11.0095 24.9879 11.0043 25.0771C10.9966 25.2112 10.9493 25.34 10.8684 25.4473C10.7875 25.5545 10.6766 25.6354 10.5497 25.6796C10.4229 25.7239 10.2858 25.7295 10.1557 25.6959C10.0257 25.6622 9.90851 25.5907 9.81905 25.4905C9.72959 25.3903 9.67185 25.2658 9.65312 25.1328C9.63439 24.9998 9.65552 24.8642 9.71383 24.7431C9.77214 24.6221 9.86502 24.5211 9.98072 24.4528Z" fill="white"/>
<path d="M20.6522 15.9843C20.5499 16.1651 20.3963 16.3116 20.2107 16.4052C20.0875 16.4674 19.9532 16.5047 19.8155 16.5149C19.6778 16.5252 19.5395 16.5082 19.4084 16.4649C19.2773 16.4217 19.156 16.3531 19.0514 16.2629C18.9468 16.1728 18.861 16.0629 18.799 15.9396C18.7055 15.754 18.6692 15.5449 18.6946 15.3386C18.72 15.1324 18.8059 14.9383 18.9416 14.7809C19.0773 14.6235 19.2566 14.5099 19.4568 14.4544C19.6571 14.3989 19.8693 14.404 20.0666 14.4691C20.2639 14.5342 20.4376 14.6563 20.5655 14.8201C20.6934 14.9838 20.77 15.1818 20.7854 15.389C20.8008 15.5962 20.7544 15.8034 20.6522 15.9843Z" fill="white"/>
<path d="M13.0266 18.9655C13.1697 19.0596 13.3375 19.1091 13.5088 19.1078C13.68 19.1065 13.8471 19.0545 13.9887 18.9582C14.1304 18.862 14.2403 18.7259 14.3046 18.5671C14.3689 18.4084 14.3847 18.2341 14.3499 18.0664C14.3152 17.8987 14.2314 17.7451 14.1093 17.625C13.9872 17.5049 13.8322 17.4237 13.664 17.3917C13.4957 17.3597 13.3218 17.3783 13.1641 17.4452C13.0064 17.5121 12.8722 17.6243 12.7783 17.7675C12.6525 17.9594 12.608 18.1933 12.6546 18.4179C12.7011 18.6425 12.8349 18.8394 13.0266 18.9655Z" fill="white"/>
<path d="M13.7131 24.1206C13.8921 24.0151 14.0984 23.9651 14.3058 23.9768C14.5841 23.9928 14.8447 24.1186 15.0303 24.3266C15.2159 24.5347 15.3114 24.8079 15.2957 25.0862C15.2838 25.2936 15.2106 25.4929 15.0855 25.6588C14.9603 25.8246 14.7888 25.9497 14.5926 26.0181C14.3964 26.0865 14.1844 26.0952 13.9832 26.0431C13.7821 25.9911 13.6009 25.8805 13.4626 25.7255C13.3242 25.5704 13.235 25.3779 13.2061 25.1721C13.1771 24.9663 13.2099 24.7566 13.3001 24.5695C13.3904 24.3823 13.5341 24.2261 13.7131 24.1206Z" fill="white"/>
<path d="M13.1414 31.0414C12.9886 31.1186 12.8621 31.2394 12.778 31.3885C12.6938 31.5375 12.6558 31.7082 12.6686 31.8789C12.6814 32.0496 12.7446 32.2127 12.8501 32.3475C12.9556 32.4823 13.0987 32.5828 13.2613 32.6364C13.4239 32.6899 13.5987 32.694 13.7636 32.6481C13.9286 32.6023 14.0762 32.5086 14.1879 32.3789C14.2996 32.2491 14.3703 32.0892 14.3911 31.9193C14.4119 31.7494 14.3819 31.5771 14.3048 31.4242C14.2536 31.3227 14.1829 31.2322 14.0967 31.158C14.0105 31.0838 13.9105 31.0273 13.8024 30.9917C13.6944 30.9562 13.5804 30.9422 13.467 30.9508C13.3535 30.9593 13.2429 30.9901 13.1414 31.0414Z" fill="white"/>
<path d="M17.9152 22.0075C17.6705 22.0097 17.4307 21.9393 17.2261 21.8052C17.0901 21.7162 16.973 21.6013 16.8814 21.467C16.7899 21.3327 16.7257 21.1817 16.6926 21.0226C16.6595 20.8635 16.6581 20.6994 16.6885 20.5397C16.7189 20.3801 16.7805 20.228 16.8697 20.0922C17.0039 19.8876 17.1957 19.7274 17.4209 19.6318C17.6461 19.5362 17.8946 19.5095 18.1349 19.5552C18.3753 19.6008 18.5967 19.7167 18.7712 19.8882C18.9457 20.0597 19.0654 20.279 19.1153 20.5185C19.1651 20.7581 19.1428 21.007 19.0512 21.2338C18.9595 21.4607 18.8027 21.6552 18.6005 21.793C18.3983 21.9307 18.1598 22.0053 17.9152 22.0075Z" fill="white"/>
<path d="M30.1851 16.3225C30.3593 16.4361 30.5633 16.4955 30.7713 16.4933C30.9793 16.491 31.182 16.4271 31.3537 16.3097C31.5254 16.1922 31.6584 16.0265 31.7359 15.8335C31.8135 15.6405 31.8321 15.4288 31.7893 15.2252C31.7466 15.0217 31.6444 14.8353 31.4958 14.6898C31.3472 14.5443 31.1588 14.4461 30.9544 14.4076C30.7499 14.3691 30.5387 14.3921 30.3473 14.4737C30.156 14.5553 29.9931 14.6917 29.8793 14.8658C29.8035 14.9815 29.7513 15.111 29.7257 15.2468C29.7 15.3827 29.7014 15.5223 29.7299 15.6576C29.7583 15.7929 29.8131 15.9213 29.8912 16.0354C29.9693 16.1495 30.0692 16.247 30.1851 16.3225Z" fill="white"/>
<path d="M30.3506 22.8903C30.0747 22.8745 29.7984 22.9131 29.5374 23.004C29.2765 23.095 29.036 23.2364 28.8297 23.4203C28.413 23.7917 28.1609 24.3134 28.1289 24.8706C28.0969 25.4278 28.2876 25.975 28.6589 26.3916C29.0303 26.8083 29.552 27.0603 30.1092 27.0923H30.2311C30.637 27.0921 31.0342 26.9745 31.3748 26.7537C31.7153 26.5328 31.9848 26.2181 32.1505 25.8476C32.3163 25.4771 32.3713 25.0665 32.309 24.6654C32.2466 24.2643 32.0696 23.8898 31.7992 23.587C31.6161 23.3805 31.3937 23.2126 31.145 23.093C30.8963 22.9733 30.6263 22.9045 30.3506 22.8903Z" fill="white"/>
<path d="M21.6774 22.5059C21.3451 22.3013 21.0765 22.0081 20.9019 21.6591C20.7413 21.3385 20.6652 20.9821 20.681 20.6238C20.6968 20.2655 20.8038 19.9172 20.992 19.6119C21.1802 19.3066 21.4433 19.0544 21.7563 18.8793C22.0692 18.7042 22.4218 18.612 22.7804 18.6114C23.1697 18.6095 23.5519 18.7161 23.8841 18.9191C24.2163 19.1222 24.4854 19.4137 24.6613 19.761C24.8237 20.082 24.9013 20.4392 24.8864 20.7987C24.8716 21.1581 24.7649 21.5078 24.5765 21.8142C24.3881 22.1207 24.1243 22.3738 23.8102 22.5493C23.4962 22.7248 23.1425 22.8169 22.7827 22.8169C22.3925 22.8181 22.0097 22.7104 21.6774 22.5059Z" fill="white"/>
<path d="M37.3992 18.9631C37.552 18.886 37.6785 18.7653 37.7627 18.6163C37.847 18.4673 37.8852 18.2967 37.8724 18.126C37.8597 17.9553 37.7967 17.7922 37.6914 17.6573C37.586 17.5224 37.443 17.4218 37.2805 17.3681C37.1179 17.3145 36.9431 17.3102 36.7782 17.3559C36.6132 17.4016 36.4655 17.4951 36.3537 17.6247C36.2419 17.7543 36.171 17.9141 36.15 18.084C36.129 18.2539 36.1588 18.4262 36.2357 18.5791C36.3392 18.7842 36.5198 18.9399 36.738 19.0118C36.9561 19.0838 37.1939 19.0663 37.3992 18.9631Z" fill="white"/>
<path d="M31.5435 20.1288C31.6641 19.9158 31.845 19.7435 32.0635 19.6334C32.2086 19.5602 32.3667 19.5163 32.5287 19.5042C32.6908 19.4922 32.8536 19.5122 33.0079 19.5631C33.1622 19.614 33.3049 19.6949 33.428 19.8011C33.551 19.9072 33.6518 20.0366 33.7248 20.1818C33.8349 20.4003 33.8776 20.6466 33.8477 20.8894C33.8179 21.1322 33.7166 21.3607 33.5569 21.546C33.3971 21.7313 33.186 21.8651 32.9502 21.9304C32.7144 21.9957 32.4645 21.9896 32.2322 21.9129C31.9999 21.8362 31.7955 21.6924 31.6449 21.4995C31.4944 21.3067 31.4044 21.0735 31.3863 20.8295C31.3683 20.5855 31.423 20.3417 31.5435 20.1288Z" fill="white"/>
<path d="M25.8794 17.5725C25.6687 17.6968 25.4259 17.7558 25.1817 17.7421C24.854 17.7234 24.5471 17.5754 24.3285 17.3304C24.1099 17.0855 23.9975 16.7638 24.016 16.4361C24.03 16.1919 24.1161 15.9573 24.2634 15.7621C24.4107 15.5668 24.6126 15.4196 24.8435 15.339C25.0744 15.2584 25.3241 15.2481 25.5609 15.3094C25.7977 15.3707 26.011 15.5008 26.1738 15.6832C26.3367 15.8657 26.4419 16.0924 26.4759 16.3346C26.51 16.5768 26.4716 16.8237 26.3654 17.044C26.2592 17.2644 26.0901 17.4483 25.8794 17.5725Z" fill="white"/>
<path d="M18.4794 30.3702C18.6979 30.26 18.8788 30.0875 18.9993 29.8745C19.1197 29.6616 19.1743 29.4176 19.1561 29.1736C19.138 28.9296 19.0478 28.6965 18.8971 28.5037C18.7464 28.3109 18.542 28.1672 18.3096 28.0906C18.0772 28.0141 17.8273 28.0082 17.5915 28.0736C17.3558 28.1391 17.1447 28.273 16.9851 28.4585C16.8254 28.6439 16.7243 28.8725 16.6946 29.1154C16.6649 29.3582 16.7079 29.6045 16.8182 29.8229C16.9659 30.1157 17.224 30.3379 17.5355 30.4405C17.847 30.5431 18.1865 30.5178 18.4794 30.3702Z" fill="white"/>
<path d="M25.6438 20.8711C25.6058 20.4045 25.7245 19.9386 25.981 19.5471C26.1728 19.2548 26.4343 19.0148 26.742 18.8488C27.0497 18.6829 27.3939 18.5961 27.7435 18.5963C28.2116 18.5969 28.6661 18.7536 29.0351 19.0416C29.4042 19.3296 29.6666 19.7324 29.7809 20.1864C29.8953 20.6403 29.8549 21.1194 29.6663 21.5478C29.4777 21.9763 29.1516 22.3296 28.7396 22.5518C28.3277 22.7741 27.8533 22.8526 27.3917 22.7749C26.9301 22.6973 26.5075 22.4679 26.191 22.123C25.8744 21.7782 25.6819 21.3377 25.6438 20.8711Z" fill="white"/>
<path d="M29.639 28.3455C29.4705 28.0112 29.2158 27.728 28.9012 27.525C28.5867 27.322 28.2237 27.2066 27.8497 27.1908C27.4756 27.1749 27.1042 27.2591 26.7736 27.4347C26.443 27.6103 26.1652 27.871 25.9689 28.1898C25.7727 28.5085 25.665 28.8739 25.6571 29.2482C25.6491 29.6224 25.7412 29.992 25.9238 30.3189C26.1064 30.6457 26.3728 30.9178 26.6957 31.1073C27.0186 31.2968 27.3861 31.3967 27.7605 31.3967C28.0898 31.3944 28.4141 31.3157 28.7078 31.1667C29.2046 30.9153 29.5815 30.4772 29.7561 29.9484C29.9306 29.4196 29.8885 28.8433 29.639 28.3455Z" fill="white"/>
<path d="M32.6268 27.9954C32.8715 27.9934 33.1112 28.064 33.3158 28.1983C33.5895 28.3788 33.7806 28.6604 33.8472 28.9814C33.9138 29.3025 33.8504 29.6369 33.671 29.9113C33.5367 30.1158 33.3448 30.276 33.1196 30.3714C32.8943 30.4669 32.6458 30.4934 32.4054 30.4476C32.1651 30.4018 31.9437 30.2858 31.7693 30.1142C31.5949 29.9426 31.4753 29.7232 31.4256 29.4836C31.376 29.2441 31.3984 28.9951 31.4902 28.7684C31.582 28.5416 31.739 28.3471 31.9413 28.2095C32.1436 28.0719 32.3822 27.9974 32.6268 27.9954Z" fill="white"/>
<path d="M37.3443 25.0379C37.356 24.8304 37.3059 24.6242 37.2004 24.4451C37.0949 24.2661 36.9387 24.1224 36.7516 24.0322C36.5644 23.9419 36.3547 23.9092 36.1489 23.9381C35.9432 23.967 35.7506 24.0563 35.5956 24.1946C35.4405 24.3329 35.33 24.5141 35.2779 24.7153C35.2258 24.9164 35.2345 25.1285 35.303 25.3247C35.3714 25.5209 35.4964 25.6924 35.6623 25.8175C35.8282 25.9426 36.0274 26.0158 36.2348 26.0277C36.5132 26.0434 36.7864 25.948 36.9944 25.7624C37.2024 25.5768 37.3283 25.3162 37.3443 25.0379Z" fill="white"/>
<path d="M39.871 24.3823C39.987 24.314 40.1207 24.2817 40.2551 24.2895C40.4351 24.3001 40.6037 24.3818 40.7237 24.5164C40.8437 24.6511 40.9055 24.8279 40.8954 25.008C40.8877 25.1424 40.8403 25.2715 40.7592 25.3789C40.6781 25.4864 40.567 25.5674 40.4399 25.6117C40.3128 25.656 40.1754 25.6616 40.0451 25.6278C39.9148 25.594 39.7974 25.5223 39.7078 25.4218C39.6183 25.3213 39.5605 25.1965 39.5419 25.0632C39.5233 24.9299 39.5446 24.794 39.6032 24.6728C39.6617 24.5516 39.7549 24.4505 39.871 24.3823Z" fill="white"/>
<path d="M37.5145 31.0381C37.3713 30.9443 37.2035 30.8951 37.0323 30.8967C36.8611 30.8982 36.6942 30.9505 36.5528 31.0469C36.4113 31.1433 36.3016 31.2794 36.2375 31.4382C36.1733 31.5969 36.1577 31.7711 36.1926 31.9387C36.2275 32.1063 36.3113 32.2598 36.4334 32.3798C36.5555 32.4998 36.7104 32.5809 36.8786 32.6128C37.0467 32.6448 37.2206 32.6261 37.3782 32.5593C37.5358 32.4924 37.67 32.3804 37.764 32.2372C37.8264 32.1421 37.8694 32.0357 37.8906 31.9239C37.9119 31.8122 37.9109 31.6974 37.8877 31.586C37.8645 31.4746 37.8197 31.3689 37.7556 31.2749C37.6916 31.1809 37.6096 31.1005 37.5145 31.0381Z" fill="white"/>
<path d="M17.821 37.2808C17.9556 37.2796 18.0875 37.3185 18.2001 37.3923C18.2748 37.4414 18.3392 37.5046 18.3895 37.5786C18.4397 37.6525 18.475 37.7356 18.4931 37.8232C18.5113 37.9107 18.512 38.001 18.4952 38.0888C18.4785 38.1766 18.4446 38.2603 18.3955 38.335C18.3216 38.4475 18.216 38.5356 18.0921 38.5881C17.9681 38.6405 17.8314 38.6551 17.6992 38.6299C17.567 38.6047 17.4452 38.5408 17.3493 38.4464C17.2534 38.352 17.1876 38.2313 17.1602 38.0995C17.1329 37.9677 17.1453 37.8308 17.1958 37.706C17.2463 37.5812 17.3326 37.4742 17.4439 37.3986C17.5552 37.3229 17.6865 37.2819 17.821 37.2808Z" fill="white"/>
<path d="M32.465 37.3211C32.3448 37.3817 32.2453 37.4765 32.179 37.5937C32.1127 37.7109 32.0826 37.8451 32.0926 37.9793C32.1026 38.1136 32.1522 38.2418 32.2351 38.3479C32.318 38.454 32.4305 38.5331 32.5583 38.5752C32.6862 38.6174 32.8237 38.6206 32.9534 38.5846C33.0831 38.5486 33.1992 38.475 33.2871 38.373C33.3749 38.271 33.4305 38.1452 33.4469 38.0116C33.4633 37.8779 33.4396 37.7425 33.379 37.6223C33.3389 37.5424 33.2834 37.4712 33.2157 37.4128C33.148 37.3544 33.0694 37.31 32.9845 37.282C32.8996 37.254 32.81 37.243 32.7209 37.2497C32.6317 37.2565 32.5448 37.2807 32.465 37.3211Z" fill="white"/>
<path d="M24.8972 29.1288C24.9352 29.5954 24.8166 30.0614 24.56 30.4529C24.3691 30.7459 24.108 30.9864 23.8003 31.1524C23.4927 31.3185 23.1483 31.4049 22.7987 31.4037C22.3305 31.4034 21.8759 31.2469 21.5067 30.959C21.1375 30.6712 20.8748 30.2684 20.7603 29.8145C20.6458 29.3605 20.6859 28.8814 20.8744 28.4528C21.0629 28.0243 21.3889 27.6709 21.8009 27.4485C22.2128 27.2261 22.6872 27.1475 23.1489 27.225C23.6106 27.3026 24.0332 27.532 24.3498 27.8768C24.6665 28.2216 24.8591 28.6622 24.8972 29.1288Z" fill="white"/>
<path d="M20.3555 33.6824C20.1816 33.5686 19.9779 33.509 19.7702 33.511C19.5624 33.513 19.3599 33.5765 19.1882 33.6936C19.0165 33.8107 18.8834 33.976 18.8057 34.1687C18.728 34.3614 18.7092 34.5728 18.7516 34.7763C18.794 34.9797 18.8958 35.1659 19.044 35.3115C19.1923 35.4571 19.3804 35.5554 19.5845 35.5941C19.7887 35.6329 19.9997 35.6102 20.191 35.5289C20.3822 35.4477 20.5451 35.3116 20.659 35.1379C20.8116 34.9046 20.8654 34.6202 20.8085 34.3473C20.7515 34.0744 20.5886 33.8353 20.3555 33.6824Z" fill="white"/>
<path d="M24.7727 37.8279C24.9203 37.741 25.0902 37.6999 25.2611 37.7096C25.3747 37.716 25.4858 37.7448 25.5883 37.7942C25.6907 37.8437 25.7824 37.9128 25.8581 37.9977C25.9338 38.0826 25.992 38.1815 26.0294 38.2889C26.0669 38.3963 26.0828 38.51 26.0763 38.6236C26.0664 38.7945 26.0061 38.9586 25.903 39.0953C25.7999 39.232 25.6586 39.335 25.4969 39.3913C25.3353 39.4477 25.1606 39.4548 24.9948 39.4119C24.8291 39.369 24.6798 39.2778 24.5659 39.1501C24.452 39.0223 24.3784 38.8636 24.3547 38.6941C24.3309 38.5246 24.3579 38.3518 24.4323 38.1976C24.5068 38.0434 24.6252 37.9148 24.7727 37.8279Z" fill="white"/>
<path d="M25.2702 32.2624C25.0257 32.2475 24.7824 32.3055 24.571 32.4291C24.3596 32.5526 24.1896 32.7361 24.0825 32.9564C23.9755 33.1766 23.9362 33.4237 23.9697 33.6662C24.0032 33.9088 24.1079 34.136 24.2706 34.319C24.4333 34.502 24.6466 34.6326 24.8836 34.6943C25.1206 34.756 25.3705 34.7459 25.6018 34.6654C25.8331 34.5849 26.0352 34.4375 26.1827 34.2421C26.3302 34.0466 26.4163 33.8117 26.4302 33.5672C26.449 33.2404 26.3375 32.9195 26.12 32.6749C25.9025 32.4303 25.5969 32.2819 25.2702 32.2624Z" fill="white"/>
<path d="M29.8888 34.0211C29.9908 33.8397 30.1443 33.6925 30.3299 33.5983C30.4529 33.5356 30.587 33.4978 30.7246 33.4869C30.8621 33.4761 31.0005 33.4925 31.1318 33.5352C31.263 33.5779 31.3845 33.6461 31.4894 33.7359C31.5942 33.8256 31.6804 33.9351 31.7429 34.0582C31.8375 34.2436 31.875 34.4529 31.8506 34.6596C31.8262 34.8664 31.741 35.0612 31.6059 35.2195C31.4707 35.3778 31.2916 35.4925 31.0912 35.5489C30.8909 35.6054 30.6783 35.6011 30.4803 35.5367C30.2824 35.4723 30.108 35.3506 29.9793 35.187C29.8505 35.0234 29.7732 34.8254 29.7571 34.6178C29.741 34.4103 29.7868 34.2026 29.8888 34.0211Z" fill="white"/>
</svg>
