<svg width="50" height="50" viewBox="0 0 50 50" fill="none" xmlns="http://www.w3.org/2000/svg">
<g clip-path="url(#clip0_3742_11580)">
<path d="M25 50C38.8071 50 50 38.8071 50 25C50 11.1929 38.8071 0 25 0C11.1929 0 0 11.1929 0 25C0 38.8071 11.1929 50 25 50Z" fill="#2A5ADA"/>
<path fill-rule="evenodd" clip-rule="evenodd" d="M21.8084 10.0919L24.8665 8.3335L27.9246 10.0919L36.258 14.9084L39.3161 16.6668V33.3335L36.258 35.0919L28.0011 39.9084L24.943 41.6668L21.8849 39.9084L13.4751 35.0919L10.417 33.3335V16.6668L13.4751 14.9084L21.8084 10.0919ZM16.5332 20.1837V29.8167L24.8665 34.6332L33.1999 29.8167V20.1837L24.8665 15.3671L16.5332 20.1837Z" fill="white"/>
</g>
<defs>
<clipPath id="clip0_3742_11580">
<rect width="50" height="50" fill="white"/>
</clipPath>
</defs>
</svg>
