<svg width="50" height="50" viewBox="0 0 50 50" fill="none" xmlns="http://www.w3.org/2000/svg">
<path d="M49.2569 31.0337C45.9209 44.4184 32.3645 52.5916 18.9552 49.2536C5.57049 45.9074 -2.58954 32.3509 0.746426 18.9663C4.08239 5.58158 17.6306 -2.59159 31.0072 0.746403C44.4246 4.04348 52.5847 17.6409 49.2569 31.0337Z" fill="url(#paint0_linear_3742_1631)"/>
<path d="M26.5569 26.31H34.5492C34.7196 26.31 34.8001 26.31 34.8124 26.0866C34.8777 25.2735 34.8777 24.4557 34.8124 23.6417C34.8124 23.4837 34.7338 23.4184 34.5625 23.4184H18.6564C18.4595 23.4184 18.4065 23.4837 18.4065 23.6682V26.008C18.4065 26.31 18.4065 26.31 18.7217 26.31H26.5569ZM33.9198 20.6839C33.9425 20.6243 33.9425 20.559 33.9198 20.5003C33.7863 20.2097 33.6283 19.9324 33.4447 19.6721C33.1683 19.2272 32.8427 18.8174 32.4716 18.4492C32.2965 18.2268 32.094 18.027 31.8668 17.8576C30.7291 16.8893 29.3766 16.2041 27.9227 15.8595C27.1892 15.6948 26.4395 15.6163 25.688 15.6229H18.6289C18.4321 15.6229 18.4056 15.7015 18.4056 15.8728V20.5391C18.4056 20.736 18.4056 20.789 18.6554 20.789H33.8252C33.8252 20.789 33.9567 20.7625 33.9832 20.6839H33.9189H33.9198ZM33.9198 29.0444C33.6964 29.0198 33.4712 29.0198 33.2478 29.0444H18.6696C18.4728 29.0444 18.4065 29.0444 18.4065 29.3076V33.8697C18.4065 34.0799 18.4065 34.1329 18.6696 34.1329H25.4003C25.7221 34.1575 26.0439 34.1348 26.3591 34.0676C27.3359 33.9975 28.2966 33.7855 29.2128 33.4362C29.546 33.3208 29.8678 33.1703 30.1716 32.9895H30.2634C31.8413 32.1689 33.1228 30.8797 33.9312 29.2971C33.9312 29.2971 34.023 29.0984 33.9198 29.0463V29.0444ZM15.7648 36.4982V36.4196V33.3567V32.3184V29.229C15.7648 29.0577 15.7648 29.0321 15.5547 29.0321H12.7019C12.5438 29.0321 12.4785 29.0321 12.4785 28.822V26.3242H15.5282C15.6985 26.3242 15.7648 26.3242 15.7648 26.1008V23.6294C15.7648 23.4714 15.7648 23.4326 15.5547 23.4326H12.7019C12.5438 23.4326 12.4785 23.4326 12.4785 23.2224V20.9092C12.4785 20.7643 12.4785 20.7255 12.6886 20.7255H15.5149C15.7118 20.7255 15.7648 20.7255 15.7648 20.4757V13.3901C15.7648 13.18 15.7648 13.127 16.0279 13.127H25.8868C26.6023 13.1553 27.3132 13.2339 28.0164 13.3636C29.4655 13.6314 30.8578 14.1492 32.1309 14.8884C32.9752 15.3853 33.7523 15.9854 34.4442 16.6764C34.9647 17.2168 35.4342 17.8018 35.8507 18.4246C36.2643 19.0559 36.6079 19.7308 36.8776 20.4359C36.9108 20.6195 37.0868 20.7435 37.2704 20.7123H39.6235C39.9254 20.7123 39.9254 20.7123 39.9387 21.0019V23.1581C39.9387 23.3682 39.8601 23.4212 39.649 23.4212H37.8346C37.6509 23.4212 37.5979 23.4212 37.6112 23.6578C37.6831 24.4586 37.6831 25.2622 37.6112 26.0629C37.6112 26.2863 37.6112 26.3128 37.862 26.3128H39.9377C40.0295 26.4311 39.9377 26.5494 39.9377 26.6687C39.951 26.8211 39.951 26.9754 39.9377 27.1277V28.7188C39.9377 28.9422 39.8724 29.0085 39.6746 29.0085H37.19C37.0168 28.9753 36.8483 29.0861 36.8085 29.2583C36.217 30.7964 35.2705 32.1755 34.0476 33.281C33.6008 33.6833 33.1314 34.0619 32.6411 34.4111C32.1148 34.714 31.6027 35.0292 31.0632 35.2791C30.0703 35.7258 29.0292 36.0552 27.9606 36.2644C26.9459 36.4461 25.9171 36.5285 24.8844 36.5143H15.761V36.501L15.7648 36.4982Z" fill="white"/>
<defs>
<linearGradient id="paint0_linear_3742_1631" x1="25" y1="0" x2="25" y2="50" gradientUnits="userSpaceOnUse">
<stop stop-color="#F9AA11"/>
<stop offset="1" stop-color="#F9C757"/>
</linearGradient>
</defs>
</svg>
