<svg width="50" height="50" viewBox="0 0 50 50" fill="none" xmlns="http://www.w3.org/2000/svg">
<path d="M49.2569 31.0337C45.9209 44.4184 32.3645 52.5916 18.9552 49.2536C5.57049 45.9074 -2.58954 32.3509 0.746426 18.9663C4.08239 5.58158 17.6306 -2.59159 31.0072 0.746403C44.4246 4.04348 52.5847 17.6409 49.2569 31.0337Z" fill="#ECEFF0"/>
<path d="M25.2914 31.0641C25.1942 31.0971 25.1389 31.0126 25.0728 30.9737C21.8352 29.0629 18.6011 27.1507 15.3706 25.2373C15.3393 25.2215 15.3068 25.2082 15.2734 25.1975V25.1547L15.3307 25.1217C15.4121 25.1003 15.4922 25.0744 15.5707 25.044L23.2002 21.5726C23.8801 21.2628 24.56 20.9578 25.2399 20.6508H25.2884C25.2884 20.748 25.2884 20.8344 25.2884 20.9267C25.291 24.3061 25.292 27.6853 25.2914 31.0641Z" fill="#343535"/>
<path d="M25.2962 20.6532H25.2476C25.2476 20.5561 25.2573 20.4589 25.2573 20.357C25.2573 16.5611 25.2573 12.765 25.2573 8.96855C25.2462 8.87104 25.2527 8.77232 25.2768 8.67716H25.2972C25.6964 9.26673 26.0441 9.88836 26.4112 10.4974C29.3199 15.3221 32.227 20.1462 35.1325 24.9696C35.1606 25.0172 35.183 25.0667 35.2082 25.1192C35.126 25.1016 35.0451 25.0779 34.9664 25.0483C34.4331 24.8074 33.898 24.5626 33.3696 24.3169C32.542 23.9381 31.7142 23.5599 30.886 23.1824L26.8959 21.3749C26.3646 21.1301 25.8304 20.8921 25.2962 20.6532Z" fill="#2F3030"/>
<path d="M25.28 8.67214C25.2559 8.7673 25.2494 8.86602 25.2605 8.96353C25.2605 12.7593 25.2605 16.5555 25.2605 20.3519C25.2605 20.4491 25.2547 20.5462 25.2508 20.6482C24.5709 20.9551 23.891 21.2601 23.2111 21.5699L15.5816 25.0413C15.5032 25.0717 15.4231 25.0977 15.3417 25.119C15.5622 24.6606 15.8487 24.2449 16.11 23.8058C19.1372 18.7739 22.1666 13.7429 25.1984 8.71294C25.2184 8.68507 25.2401 8.65847 25.2634 8.63329L25.28 8.67214Z" fill="#828384"/>
<path d="M25.2962 20.6532C25.8304 20.8921 26.3648 21.1302 26.898 21.3711L30.8881 23.1786C31.7169 23.5555 32.5448 23.9337 33.3717 24.3131C33.9039 24.5569 34.4401 24.8036 34.9685 25.0445C35.0472 25.0741 35.1281 25.0978 35.2103 25.1154C35.3075 25.2368 35.1637 25.2417 35.12 25.2679C34.2915 25.7632 33.4591 26.2518 32.6286 26.7433C30.2451 28.1536 27.8622 29.5636 25.4799 30.9733C25.4197 31.0082 25.3545 31.034 25.2914 31.0641C25.2914 27.6859 25.2915 24.3079 25.2915 20.9291C25.2925 20.8369 25.2952 20.7455 25.2962 20.6532Z" fill="#131313"/>
<path d="M25.2572 32.983L31.4978 29.3047C32.6892 28.6015 33.88 27.8977 35.0702 27.1932L35.178 27.1339C35.1887 27.231 35.1217 27.2825 35.0809 27.3388C32.3613 31.1729 29.6416 35.0056 26.922 38.837C26.4072 39.5635 25.8934 40.2939 25.3738 41.0146C25.3466 41.0525 25.3048 41.2303 25.2213 41.0418C25.2873 40.9855 25.2582 40.9097 25.2582 40.8476C25.2588 38.2251 25.2585 35.6036 25.2572 32.983Z" fill="#2F3030"/>
<path d="M25.2567 32.9835C25.2567 35.6041 25.2567 38.224 25.2567 40.8432C25.2567 40.9102 25.2858 40.986 25.2198 41.0375C25.0809 40.9539 25.0207 40.8044 24.9284 40.681C21.7749 36.239 18.6231 31.7963 15.4729 27.3529C15.433 27.2966 15.3961 27.2364 15.3553 27.1742C15.4369 27.1266 15.4806 27.1917 15.5282 27.2199C18.7173 29.1029 21.9057 30.9875 25.0935 32.8738C25.1528 32.9107 25.2033 32.9485 25.2567 32.9835Z" fill="#828384"/>
<path d="M25.2807 8.67209L25.2574 8.63615C25.3001 8.60895 25.2943 8.64877 25.3011 8.66917L25.2807 8.67209Z" fill="#393939"/>
</svg>
