<svg width="50" height="50" viewBox="0 0 50 50" fill="none" xmlns="http://www.w3.org/2000/svg">
<g clip-path="url(#clip0_3828_11598)">
<path d="M25 50C38.8071 50 50 38.8071 50 25C50 11.1929 38.8071 0 25 0C11.1929 0 0 11.1929 0 25C0 38.8071 11.1929 50 25 50Z" fill="url(#paint0_linear_3828_11598)"/>
<path d="M16.8524 19.5539C17.4429 19.1987 18.2104 19.1987 18.8597 19.5539L23.465 22.277L26.5941 24.0529L31.1993 26.7759C31.7897 27.1311 32.5572 27.1311 33.2066 26.7759L36.8672 24.6448C37.4576 24.2896 37.8708 23.6385 37.8708 22.9281V18.7252C37.8708 18.0148 37.5166 17.3636 36.8672 17.0085L33.2657 14.9366C32.6753 14.5814 31.9078 14.5814 31.2583 14.9366L27.6568 17.0085C27.0665 17.3636 26.6531 18.0148 26.6531 18.7252V21.4482L23.524 19.6131V16.8901C23.524 16.1797 23.8782 15.5285 24.5277 15.1734L31.1993 11.2664C31.7897 10.9112 32.5572 10.9112 33.2066 11.2664L39.9963 15.1734C40.6458 15.5285 41 16.1797 41 16.8901V24.7632C41 25.4736 40.6458 26.1248 39.9963 26.48L33.2066 30.3869C32.6162 30.7421 31.8487 30.7421 31.1993 30.3869L26.5941 27.7231L23.465 25.888L18.8597 23.2241C18.2694 22.8689 17.5019 22.8689 16.8524 23.2241L13.2509 25.296C12.6606 25.6512 12.2473 26.3024 12.2473 27.0127V31.2156C12.2473 31.9261 12.6015 32.5772 13.2509 32.9323L16.8524 35.0635C17.4429 35.4186 18.2104 35.4186 18.8597 35.0635L22.4612 32.9916C23.0517 32.6364 23.465 31.9852 23.465 31.2749V28.5519L26.5941 30.3869V33.1099C26.5941 33.8203 26.2398 34.4715 25.5905 34.8267L18.8007 38.7336C18.2104 39.0888 17.4429 39.0888 16.7934 38.7336L10.0037 34.8267C9.41332 34.4715 9 33.8203 9 33.1099V25.2368C9 24.5264 9.35431 23.8753 10.0037 23.5202L16.8524 19.5539Z" fill="white"/>
</g>
<defs>
<linearGradient id="paint0_linear_3828_11598" x1="25" y1="0" x2="25" y2="50" gradientUnits="userSpaceOnUse">
<stop stop-color="#9630CD"/>
<stop offset="1" stop-color="#7E3DE1"/>
</linearGradient>
<clipPath id="clip0_3828_11598">
<rect width="50" height="50" fill="white"/>
</clipPath>
</defs>
</svg>
