<svg width="50" height="50" viewBox="0 0 50 50" fill="none" xmlns="http://www.w3.org/2000/svg">
<path d="M49.2569 31.0337C45.9209 44.4184 32.3645 52.5916 18.9552 49.2536C5.57049 45.9074 -2.58954 32.3509 0.746426 18.9663C4.08239 5.58158 17.6306 -2.59159 31.0072 0.746403C44.4246 4.04348 52.5847 17.6409 49.2569 31.0337Z" fill="#000008"/>
<path d="M40.4426 32.7191L35.2838 38.1089C35.1717 38.2259 35.036 38.3193 34.8852 38.3831C34.7345 38.4469 34.5718 38.4798 34.4074 38.4797H9.95241C9.83572 38.4797 9.72158 38.4464 9.624 38.3841C9.52642 38.3218 9.44966 38.233 9.40315 38.1288C9.35664 38.0245 9.3424 37.9093 9.36219 37.7973C9.38198 37.6852 9.43493 37.5813 9.51454 37.4982L14.6772 32.1084C14.789 31.9916 14.9243 31.8985 15.0746 31.8347C15.2249 31.7709 15.387 31.7378 15.5509 31.7376H40.0046C40.1213 31.7376 40.2354 31.7708 40.3331 31.8331C40.4306 31.8955 40.5073 31.9842 40.554 32.0885C40.6004 32.1927 40.6147 32.3079 40.5949 32.42C40.575 32.532 40.5221 32.636 40.4426 32.7191ZM35.2838 21.8656C35.1717 21.7485 35.036 21.6551 34.8852 21.5913C34.7345 21.5276 34.5718 21.4947 34.4074 21.4948H9.95241C9.83572 21.4948 9.72158 21.528 9.624 21.5903C9.52642 21.6527 9.44966 21.7414 9.40315 21.8456C9.35664 21.9499 9.3424 22.0651 9.36219 22.1772C9.38198 22.2892 9.43493 22.3931 9.51454 22.4763L14.6772 27.8661C14.789 27.9828 14.9243 28.076 15.0746 28.1398C15.2249 28.2035 15.387 28.2366 15.5509 28.2369H40.0046C40.1213 28.2369 40.2354 28.2037 40.3331 28.1413C40.4306 28.079 40.5073 27.9902 40.554 27.886C40.6004 27.7817 40.6147 27.6665 40.5949 27.5545C40.575 27.4425 40.5221 27.3385 40.4426 27.2554L35.2838 21.8656ZM9.95241 17.9941H34.4074C34.5718 17.9941 34.7345 17.9613 34.8852 17.8975C35.036 17.8337 35.1717 17.7403 35.2838 17.6232L40.4426 12.2334C40.5221 12.1503 40.575 12.0464 40.5949 11.9343C40.6147 11.8223 40.6004 11.7071 40.554 11.6028C40.5073 11.4986 40.4306 11.4098 40.3331 11.3475C40.2354 11.2852 40.1213 11.252 40.0046 11.252H15.5509C15.387 11.2522 15.2249 11.2853 15.0746 11.3491C14.9243 11.4128 14.789 11.506 14.6772 11.6228L9.51587 17.0126C9.43634 17.0956 9.38341 17.1994 9.36358 17.3113C9.34374 17.4232 9.35787 17.5384 9.40421 17.6426C9.45056 17.7468 9.52712 17.8355 9.62449 17.898C9.72187 17.9604 9.83584 17.9938 9.95241 17.9941Z" fill="url(#paint0_linear_3742_1637)"/>
<defs>
<linearGradient id="paint0_linear_3742_1637" x1="11.9914" y1="39.1286" x2="36.8886" y2="10.3187" gradientUnits="userSpaceOnUse">
<stop offset="0.08" stop-color="#9945FF"/>
<stop offset="0.3" stop-color="#8752F3"/>
<stop offset="0.5" stop-color="#5497D5"/>
<stop offset="0.6" stop-color="#43B4CA"/>
<stop offset="0.72" stop-color="#28E0B9"/>
<stop offset="0.97" stop-color="#19FB9B"/>
</linearGradient>
</defs>
</svg>
