<svg width="50" height="50" viewBox="0 0 50 50" fill="none" xmlns="http://www.w3.org/2000/svg">
<path d="M49.2569 31.0337C45.9209 44.4184 32.3645 52.5916 18.9552 49.2536C5.57049 45.9074 -2.58954 32.3509 0.746426 18.9663C4.08239 5.58158 17.6306 -2.59159 31.0072 0.746403C44.4246 4.04348 52.5847 17.6409 49.2569 31.0337Z" fill="#0088CC"/>
<path fill-rule="evenodd" clip-rule="evenodd" d="M15.2739 12.564H35.3036C35.9734 12.564 36.6359 12.564 37.5291 13.0106C38.4223 13.4571 38.8614 14.127 39.308 14.5662C39.308 14.5662 39.308 14.5662 39.308 14.7895C39.7546 15.4594 39.9779 16.1218 39.9779 17.015C39.9779 17.6849 39.7546 18.5706 39.308 19.2405L26.6248 40.8332C26.4015 41.2798 25.7316 41.5031 25.2925 41.5031C24.8459 41.5031 24.1834 41.2798 23.9601 40.8332L11.4928 19.2405C11.2695 18.7939 10.8229 18.1315 10.5996 17.015C10.5996 16.1218 10.8229 15.2361 11.0462 14.5662C11.4928 13.8963 12.1552 13.2339 12.8251 12.7873C13.9416 12.564 14.8273 12.564 15.2739 12.564ZM23.7294 15.6827H15.2739C14.8273 15.6827 14.604 15.6827 14.3807 15.6827C14.1575 15.6827 13.9342 15.906 13.9342 16.1293C13.7109 16.3525 13.7109 16.5758 13.7109 16.7991C13.7109 17.0224 13.7109 17.0224 14.1575 17.6923L23.7294 34.3874V15.6827ZM26.8481 15.6827V34.38L36.6433 17.6849C36.6433 17.4616 36.8666 17.2383 36.8666 16.7917C36.8666 16.5684 36.8666 16.3451 36.6433 16.1218C36.42 15.8985 36.42 15.8985 36.42 15.8985C36.42 15.8985 36.42 15.8985 36.1967 15.8985C35.9734 15.8985 35.7501 15.6752 35.3036 15.6752H26.8481V15.6827Z" fill="white"/>
</svg>
