<svg width="50" height="50" viewBox="0 0 50 50" fill="none" xmlns="http://www.w3.org/2000/svg">
<path d="M49.2569 31.0337C45.9209 44.4184 32.3645 52.5916 18.9552 49.2536C5.57049 45.9074 -2.58954 32.3509 0.746426 18.9663C4.08239 5.58158 17.6306 -2.59159 31.0072 0.746403C44.4246 4.04348 52.5847 17.6409 49.2569 31.0337Z" fill="#2775CA"/>
<path d="M10.4461 19.481C7.42513 27.502 11.5919 36.5644 19.7169 39.4809C20.0294 39.6894 20.3419 40.1059 20.3419 40.4184V41.8769C20.3419 42.0852 20.3419 42.1894 20.2376 42.2934C20.1336 42.7102 19.7169 42.9184 19.3001 42.7102C13.4669 40.8352 8.98762 36.3559 7.11262 30.5227C3.98762 20.627 9.40438 10.106 19.3001 6.98095C19.4044 6.87695 19.6126 6.87695 19.7169 6.87695C20.1336 6.98095 20.3419 7.29345 20.3419 7.7102V9.16845C20.3419 9.68945 20.1336 10.002 19.7169 10.2102C15.4461 11.7727 12.0086 15.106 10.4461 19.481Z" fill="white"/>
<path d="M29.8211 7.3977C29.9251 6.98095 30.3419 6.7727 30.7586 6.98095C36.4876 8.85595 41.0711 13.3352 42.9461 19.2727C46.0711 29.1684 40.6544 39.6894 30.7586 42.8144C30.6544 42.9184 30.4461 42.9184 30.3419 42.9184C29.9251 42.8144 29.7169 42.5019 29.7169 42.0852V40.6269C29.7169 40.1059 29.9251 39.7934 30.3419 39.5852C34.6126 38.0227 38.0501 34.6895 39.6126 30.3145C42.6336 22.2935 38.4669 13.231 30.3419 10.3145C30.0294 10.106 29.7169 9.68945 29.7169 9.2727V7.81445C29.7169 7.60595 29.7169 7.50195 29.8211 7.3977Z" fill="white"/>
<path d="M25.3418 23.127C29.7168 23.6478 31.9043 24.8978 31.9043 28.5435C31.9043 31.356 29.821 33.5435 26.696 34.0645V36.5645C26.5918 37.0853 26.2793 37.3978 25.8625 37.3978H24.3C23.7793 37.2935 23.4668 36.981 23.4668 36.5645V34.0645C20.0293 33.5435 18.3625 31.6685 17.946 29.0645V28.9603C17.946 28.5435 18.2585 28.231 18.675 28.231H20.446C20.7585 28.231 21.071 28.4395 21.175 28.856C21.4875 30.4185 22.425 31.5645 25.1335 31.5645C27.1125 31.5645 28.571 30.4188 28.571 28.752C28.571 27.0853 27.6335 26.4603 24.7168 25.9395C20.3418 25.4185 18.2585 24.0645 18.2585 20.627C18.2585 18.0228 20.2375 15.9395 23.3625 15.5228V13.127C23.4668 12.606 23.7793 12.2935 24.196 12.2935H25.7585C26.2793 12.3978 26.5918 12.7103 26.5918 13.127V15.627C28.9875 15.8353 30.8625 17.606 31.2793 19.8978V20.002C31.2793 20.4185 30.9668 20.731 30.55 20.731H28.8835C28.571 20.731 28.2585 20.5228 28.1543 20.2103C27.6335 18.6478 26.5918 18.0228 24.7168 18.0228C22.6335 18.0228 21.5918 18.96 21.5918 20.4185C21.5918 21.877 22.2168 22.7103 25.3418 23.127Z" fill="white"/>
</svg>
