<svg width="50" height="50" viewBox="0 0 50 50" fill="none" xmlns="http://www.w3.org/2000/svg">
<path d="M25 49.9999C29.9445 49.9999 34.778 48.5337 38.8893 45.7867C43.0005 43.0396 46.2048 39.1352 48.097 34.567C49.9892 29.9989 50.4843 24.9722 49.5196 20.1227C48.555 15.2732 46.174 10.8186 42.6777 7.32232C39.1813 3.82601 34.7268 1.44501 29.8773 0.48038C25.0277 -0.484249 20.0011 0.0108275 15.433 1.90302C10.8648 3.7952 6.96036 6.99952 4.21333 11.1107C1.4663 15.222 7.50588e-05 20.0554 7.50588e-05 25C-0.00798487 28.2853 0.633147 31.5398 1.88666 34.5766C3.14017 37.6133 4.98134 40.3725 7.30441 42.6956C9.62748 45.0186 12.3866 46.8598 15.4234 48.1133C18.4602 49.3668 21.7147 50.008 25 49.9999Z" fill="#2775CA"/>
<path d="M31.8708 28.9577C31.8708 25.3116 29.6845 24.0623 25.3119 23.5259C22.1818 23.1049 21.5571 22.2766 21.5571 20.81C21.5571 19.3434 22.6028 18.4132 24.6872 18.4132C26.5612 18.4132 27.6 19.0378 28.1228 20.6063C28.1764 20.7578 28.2758 20.8888 28.4072 20.9813C28.5386 21.0738 28.6955 21.123 28.8561 21.1223H30.5196C30.6174 21.1304 30.7158 21.1173 30.808 21.0837C30.9001 21.0502 30.984 20.997 31.0537 20.928C31.1234 20.8589 31.1772 20.7756 31.2116 20.6838C31.246 20.5919 31.2601 20.4936 31.2529 20.3958V20.2872C31.0505 19.1579 30.4809 18.1271 29.6325 17.3548C28.7841 16.5826 27.7044 16.1121 26.5612 16.0164V13.5178C26.5612 13.1036 26.2489 12.7913 25.7328 12.6826H24.1644C23.7502 12.6826 23.4379 12.9949 23.3361 13.5178V15.9417C20.2128 16.3559 18.2301 18.4403 18.2301 21.0476C18.2301 24.4832 20.3146 25.8412 24.6872 26.3572C27.6068 26.88 28.5438 27.5047 28.5438 29.1682C28.5438 30.8317 27.084 31.986 25.1082 31.986C22.3923 31.986 21.4621 30.8385 21.1497 29.27C21.1172 29.0978 21.0268 28.9419 20.8934 28.8283C20.7599 28.7147 20.5916 28.6501 20.4164 28.6454H18.6443C18.5471 28.6383 18.4495 28.6522 18.3581 28.6862C18.2668 28.7202 18.1838 28.7735 18.1149 28.8425C18.046 28.9114 17.9927 28.9944 17.9587 29.0857C17.9247 29.1771 17.9107 29.2747 17.9178 29.3719V29.4805C18.332 32.081 20.0023 33.9618 23.4379 34.4778V36.99C23.4379 37.411 23.7502 37.7233 24.273 37.8252H25.8347C26.2489 37.8252 26.5612 37.5128 26.663 36.99V34.4778C29.7863 33.955 31.8708 31.7619 31.8708 28.9577Z" fill="white"/>
<path d="M19.6841 39.8965C16.6988 38.7852 14.1248 36.7876 12.3072 34.1716C10.4897 31.5557 9.51559 28.4465 9.51559 25.2611C9.51559 22.0757 10.4897 18.9665 12.3072 16.3505C14.1248 13.7346 16.6988 11.737 19.6841 10.6257C19.8844 10.5385 20.0523 10.3908 20.1644 10.2033C20.2764 10.0157 20.3269 9.79781 20.3087 9.58011V8.1203C20.3241 7.92969 20.269 7.74007 20.1539 7.58738C20.0387 7.4347 19.8716 7.32957 19.6841 7.29195C19.5384 7.27683 19.392 7.31284 19.2699 7.3938C15.4763 8.59849 12.1646 10.9793 9.81438 14.1916C7.46412 17.4039 6.19727 21.2808 6.19727 25.2611C6.19727 29.2414 7.46412 33.1183 9.81438 36.3306C12.1646 39.5429 15.4763 41.9237 19.2699 43.1284C19.357 43.1774 19.4543 43.2053 19.5542 43.2099C19.654 43.2144 19.7535 43.1954 19.8447 43.1545C19.9358 43.1135 20.0161 43.0517 20.079 42.9741C20.1419 42.8964 20.1857 42.8051 20.2069 42.7074C20.3087 42.6056 20.3087 42.5037 20.3087 42.2932V40.8334C20.2777 40.6417 20.2059 40.4588 20.0981 40.2972C19.9904 40.1355 19.8492 39.9989 19.6841 39.8965ZM30.7243 7.3938C30.6379 7.34323 30.5408 7.31388 30.4409 7.30819C30.3411 7.3025 30.2413 7.32063 30.1498 7.36108C30.0582 7.40153 29.9777 7.46314 29.9146 7.54083C29.8516 7.61853 29.808 7.7101 29.7873 7.80798C29.6854 7.91661 29.6854 8.01846 29.6854 8.22894V9.68874C29.702 9.89845 29.767 10.1014 29.8754 10.2817C29.9838 10.462 30.1326 10.6146 30.3101 10.7276C33.2953 11.8388 35.8694 13.8364 37.6869 16.4524C39.5044 19.0684 40.4786 22.1776 40.4786 25.3629C40.4786 28.5483 39.5044 31.6575 37.6869 34.2735C35.8694 36.8894 33.2953 38.887 30.3101 39.9983C30.1098 40.0855 29.9418 40.2332 29.8298 40.4208C29.7177 40.6083 29.6673 40.8262 29.6854 41.0439V42.4969C29.6698 42.6884 29.7247 42.8789 29.8397 43.0327C29.9547 43.1865 30.122 43.293 30.3101 43.3321C30.4558 43.3472 30.6022 43.3112 30.7243 43.2302C34.5144 42.0072 37.8191 39.6138 40.1632 36.3942C42.5073 33.1746 43.7702 29.2946 43.7702 25.312C43.7702 21.3294 42.5073 17.4494 40.1632 14.2298C37.8191 11.0102 34.5144 8.61685 30.7243 7.3938Z" fill="white"/>
</svg>
