<svg width="50" height="50" viewBox="0 0 50 50" fill="none" xmlns="http://www.w3.org/2000/svg">
<path fill-rule="evenodd" clip-rule="evenodd" d="M25 0C38.8045 0 50 11.1888 50 25C50 38.8045 38.8045 50 25 50C11.1888 50 0 38.8045 0 25C0 11.1955 11.1888 0 25 0Z" fill="#F4F4F4"/>
<path d="M38.1257 10.6106C30.7023 3.81928 19.3185 3.81928 11.8952 10.6106L10.4899 9.23886C18.6797 1.68104 31.3008 1.68104 39.4974 9.23886L38.1257 10.6106Z" fill="#4F4B58"/>
<path d="M39.3962 11.868L40.7679 10.4962V10.4626C48.3257 18.6525 48.3257 31.2736 40.7679 39.4702L39.3962 38.0985C46.1875 30.6751 46.1875 19.298 39.3962 11.868Z" fill="#4F4B58"/>
<path d="M10.6105 38.1119C3.83268 30.6885 3.83268 19.3182 10.6105 11.8948L9.23881 10.5231C1.68099 18.713 1.68099 31.3341 9.23881 39.5307L10.6105 38.1119Z" fill="#4F4B58"/>
<path d="M11.8811 39.376C19.3044 46.1673 30.6883 46.1673 38.1116 39.376L39.5169 40.7545C31.327 48.3056 18.706 48.3056 10.5094 40.7545L11.8811 39.376Z" fill="#4F4B58"/>
<path fill-rule="evenodd" clip-rule="evenodd" d="M29.1621 21.5035C29.1621 24.2469 24.8722 23.9174 23.5072 23.9174V19.0828C24.8654 19.0761 29.1621 18.6458 29.1621 21.5035ZM30.2783 29.0143C30.2783 32.0132 25.1344 31.6703 23.4937 31.6703V26.3448C25.1411 26.3515 30.2783 25.8809 30.2783 29.0143ZM33.6672 20.4209C33.3915 17.5565 30.9238 16.5949 27.7971 16.2991V12.3521H25.3832V16.2251C24.7444 16.2251 24.0989 16.2251 23.4534 16.2453V12.3521H21.0462V16.326H16.1511V18.908C16.1511 18.908 17.933 18.8744 17.9061 18.908C18.5717 18.8341 19.1836 19.3047 19.2778 19.9704V30.8499C19.2643 31.0785 19.1567 31.287 18.9886 31.4416C18.8138 31.5896 18.5919 31.6635 18.3633 31.6501C18.3902 31.677 16.6083 31.6501 16.6083 31.6501L16.1309 34.5347H21.0058V38.5691H23.4265V34.5885H25.3496V38.5422H27.7702V34.5549C31.8517 34.3061 34.7027 33.2975 35.0524 29.4782C35.3415 26.4053 33.8958 25.0336 31.5828 24.4755C32.9948 23.7762 33.8757 22.5121 33.6672 20.4209Z" fill="#F09242"/>
<path fill-rule="evenodd" clip-rule="evenodd" d="M24.9933 1.94997C12.2781 1.9567 1.97015 12.2714 1.97015 24.9933C1.97015 37.7152 12.2848 48.0231 25.0067 48.0231C37.7286 48.0231 48.0433 37.7152 48.0433 24.9933C48.0299 12.2714 37.7152 1.97015 24.9933 1.96342V1.94997ZM24.9933 50C11.1888 50 0 38.8045 0 25C0 11.1888 11.1888 0 25 0C38.8045 0 50 11.1888 50 24.9933C49.9866 38.7977 38.7977 49.9866 24.9933 50Z" fill="#231E30"/>
</svg>
