<svg width="50" height="50" viewBox="0 0 50 50" fill="none" xmlns="http://www.w3.org/2000/svg">
<path d="M49.2569 31.0337C45.9209 44.4184 32.3645 52.5916 18.9552 49.2536C5.57049 45.9074 -2.58954 32.3509 0.746426 18.9663C4.08239 5.58158 17.6306 -2.59159 31.0072 0.746403C44.4246 4.04348 52.5847 17.6409 49.2569 31.0337Z" fill="#262C32"/>
<path d="M36.1945 11.9458H40.7065L31.3064 21.4503C27.9015 24.897 22.3868 24.897 18.9819 21.4503L9.58182 11.9458H14.0938L21.2379 19.1734C23.3477 21.325 26.8362 21.3459 28.9877 19.2361C29.0086 19.2152 29.0295 19.1943 29.0504 19.1734L36.1945 11.9458ZM14.0521 38.3705H9.54004L19.0028 28.8033C22.4077 25.3566 27.9224 25.3566 31.3273 28.8033L40.79 38.3705H36.278L29.0922 31.1011C26.9824 28.9495 23.4939 28.9286 21.3423 31.0384C21.3215 31.0593 21.3006 31.0802 21.2797 31.1011L14.0521 38.3705Z" fill="white"/>
</svg>
